<svg width="54" height="27" viewBox="0 0 54 27" fill="none" xmlns="http://www.w3.org/2000/svg">
<path fill-rule="evenodd" clip-rule="evenodd" d="M29.5118 25.6145C29.9666 25.6145 30.389 25.5061 30.7789 25.2894C31.1904 25.0727 31.5586 24.791 31.8835 24.4443C32.2301 24.1192 32.5333 23.7616 32.7932 23.3716C33.0532 22.9815 33.2806 22.6131 33.4755 22.2664C33.7138 21.8113 33.9737 21.1504 34.2553 20.2835C34.5585 19.4384 34.8401 18.5282 35.1 17.5531C35.3599 16.5996 35.5765 15.6786 35.7498 14.7901C35.9447 13.9016 36.0639 13.2081 36.1072 12.7097C35.8473 12.8831 35.609 13.0456 35.3924 13.1973L32.2084 16.0253C32.1001 16.112 32.0027 16.2095 31.916 16.3178C31.851 16.4479 31.7536 16.5671 31.6236 16.6754C31.1038 17.1955 30.6381 17.7156 30.2266 18.2357C29.815 18.7558 29.4035 19.33 28.9919 19.9585C28.797 20.2402 28.5912 20.5978 28.3746 21.0312C28.1364 21.4646 27.9523 21.9197 27.8223 22.3964C27.6924 22.8948 27.649 23.3824 27.6924 23.8592C27.714 24.3359 27.8873 24.7476 28.2122 25.0944C28.4938 25.4411 28.927 25.6145 29.5118 25.6145ZM30.259 9.7192C30.6706 9.50249 31.1579 9.02574 31.7211 8.28895C32.3059 7.53048 32.8907 6.69617 33.4755 5.78601C34.0603 4.87585 34.6018 3.98736 35.1 3.12054C35.6199 2.23206 36.0206 1.54944 36.3021 1.07269C36.562 0.639279 36.7353 0.357563 36.822 0.22754C36.9303 0.0758465 37.1577 0 37.5043 0C37.6775 0 37.8075 0.130023 37.8941 0.390068C37.9808 0.650114 38.0457 0.9535 38.0891 1.30023C38.1324 1.62528 38.154 1.96118 38.154 2.3079V3.05553V5.55847C38.154 5.97021 38.1324 6.40362 38.0891 6.8587C38.0674 7.29211 38.0349 7.72551 37.9916 8.15892C37.9699 8.57066 37.9375 8.96073 37.8941 9.32913C37.8725 9.67585 37.8616 9.96841 37.8616 10.2068L42.5077 7.50881C42.551 7.46547 42.6376 7.40046 42.7676 7.31378C42.8975 7.22709 43.0383 7.14041 43.19 7.05373C43.3416 6.96705 43.4932 6.8912 43.6448 6.82619C43.721 6.78262 43.7945 6.75 43.8652 6.72833C44.0327 6.34951 44.2213 5.98123 44.4309 5.62348C44.8208 4.97337 45.2648 4.43161 45.763 3.9982C46.2828 3.54312 46.8243 3.31558 47.3875 3.31558C47.7774 3.31558 48.1131 3.4131 48.3947 3.60813C48.6762 3.80316 48.8928 4.01987 49.0445 4.25824C49.1961 4.47495 49.2611 4.68082 49.2394 4.87585C49.2394 5.07088 49.1311 5.1684 48.9145 5.1684C48.6762 5.1684 48.4488 5.04921 48.2322 4.81084C48.0156 4.55079 47.7557 4.42077 47.4525 4.42077C47.2142 4.42077 46.9218 4.56163 46.5752 4.84335C46.2503 5.12506 45.8496 5.67766 45.3731 6.50113C45.1565 6.84786 44.9507 7.30294 44.7558 7.86637C44.5825 8.40813 44.4959 8.94989 44.4959 9.49166L44.5284 9.45915C44.5284 9.48082 44.5717 9.43748 44.6583 9.32913L44.9183 8.93906C45.0915 8.67901 45.2865 8.34312 45.5031 7.93138C45.7413 7.49797 45.9688 7.08624 46.1854 6.69617C46.4236 6.28443 46.6402 5.92687 46.8352 5.62348C47.0518 5.32009 47.2142 5.1684 47.3225 5.1684C47.6041 5.1684 47.7882 5.25508 47.8748 5.42845C47.9831 5.58014 48.0481 5.78601 48.0698 6.04606C48.0914 6.3061 48.1022 6.59865 48.1022 6.92371C48.1022 7.24876 48.1347 7.56299 48.1997 7.86637C48.3297 8.45147 48.5246 8.88488 48.7845 9.1666C49.0661 9.42664 49.3802 9.55667 49.7267 9.55667C50.3332 9.55667 51.0047 9.18827 51.7411 8.45147C52.0443 8.16976 52.2501 7.94222 52.3584 7.76886C52.4884 7.57382 52.6725 7.35712 52.9107 7.11874C53.0623 6.90204 53.2573 6.79369 53.4955 6.79369C53.6255 6.79369 53.723 6.84786 53.7879 6.95621C53.8529 7.0429 53.8638 7.19459 53.8204 7.41129C53.7771 7.60633 53.6472 7.85554 53.4306 8.15892C53.2356 8.46231 52.9324 8.80904 52.5209 9.1991L51.5462 9.97924C50.918 10.4127 50.3116 10.6294 49.7267 10.6294C49.3152 10.6294 48.947 10.5318 48.6221 10.3368C48.2972 10.1418 48.0156 9.90339 47.7774 9.62168C47.5608 9.31829 47.3875 8.9824 47.2575 8.614C47.1276 8.2456 47.0626 7.88804 47.0626 7.54132C46.911 7.64967 46.7377 7.89888 46.5427 8.28895C46.3478 8.65734 46.1312 9.04741 45.8929 9.45915C45.6763 9.84922 45.4489 10.2068 45.2107 10.5318C44.9724 10.8569 44.7341 11.0194 44.4959 11.0194C43.8894 11.0194 43.5212 10.8786 43.3912 10.5968C43.2613 10.3151 43.1963 9.88172 43.1963 9.29662C43.1963 8.92298 43.2693 8.4763 43.4153 7.95658C43.3633 7.99117 43.3098 8.02611 43.2549 8.06141C42.9734 8.23477 42.7026 8.3973 42.4427 8.54899C42.1828 8.67901 41.9987 8.77653 41.8904 8.84154C41.2189 9.20994 40.5475 9.61084 39.876 10.0443C39.2262 10.456 38.5872 10.8786 37.9591 11.312C37.7858 11.4203 37.6992 11.5178 37.6992 11.6045C37.6992 11.6695 37.6775 11.8212 37.6342 12.0596C37.5259 12.8614 37.3743 13.7499 37.1794 14.7251C36.9844 15.7002 36.757 16.6754 36.4971 17.6506C36.2372 18.6474 35.9339 19.5901 35.5874 20.4786C35.2625 21.3887 34.9051 22.1689 34.5152 22.819C34.2769 23.2741 33.9845 23.7183 33.638 24.1517C33.2914 24.6068 32.9015 25.0077 32.4683 25.3544C32.0568 25.7228 31.602 26.0154 31.1038 26.2321C30.6273 26.4488 30.1183 26.5571 29.5768 26.5571C28.7753 26.5571 28.1039 26.2862 27.5624 25.7445C27.0209 25.2027 26.7502 24.4443 26.7502 23.4691C26.7502 22.5806 27.0426 21.5946 27.6274 20.5111C28.1905 19.4492 28.8836 18.409 29.7067 17.3905C30.5515 16.372 31.4395 15.4185 32.3709 14.53C33.3022 13.6632 34.1253 12.9806 34.8401 12.4822C34.9484 12.3738 35.0459 12.298 35.1325 12.2546C35.2191 12.2113 35.3274 12.1355 35.4574 12.0271C35.7606 11.7671 35.9772 11.5937 36.1072 11.507C36.2588 11.4203 36.3455 11.2253 36.3671 10.9219C36.4754 10.0984 36.562 9.32913 36.627 8.614C36.7137 7.87721 36.7895 7.15125 36.8545 6.43612C36.9194 5.721 36.9628 4.9842 36.9844 4.22574C37.0277 3.4456 37.0494 2.58962 37.0494 1.65779C36.9844 1.70113 36.8003 1.96118 36.4971 2.43793C36.1938 2.91468 35.8581 3.45644 35.4899 4.06321C35.1433 4.64831 34.8076 5.21174 34.4827 5.7535C34.1578 6.29527 33.9304 6.66366 33.8004 6.8587C33.4755 7.37879 33.0748 7.9964 32.5983 8.71152C32.1434 9.40497 31.6994 9.95757 31.2662 10.3693C30.8547 10.7377 30.4756 10.9219 30.1291 10.9219C29.7609 10.9219 29.4576 10.7594 29.2194 10.4343C29.0028 10.0876 28.8945 9.63251 28.8945 9.06908C28.8945 8.72235 28.9378 8.28895 29.0244 7.76886C29.1327 7.22709 29.2627 6.71784 29.4143 6.24109C29.5876 5.74267 29.7825 5.32009 29.9991 4.97337C30.2374 4.60497 30.4865 4.42077 30.7464 4.42077C31.1146 4.42077 31.2879 4.55079 31.2662 4.81084C31.2662 5.07088 31.1904 5.43928 31.0388 5.91603C30.8872 6.37111 30.7139 6.92371 30.519 7.57382C30.3457 8.22394 30.259 8.93906 30.259 9.7192ZM2.76515 25.6145C3.22059 25.6145 3.6435 25.5061 4.03387 25.2894C4.44593 25.0727 4.81462 24.791 5.13993 24.4443C5.48693 24.1192 5.79056 23.7616 6.05081 23.3716C6.31106 22.9815 6.53877 22.6131 6.73396 22.2664C6.97252 21.8113 7.23277 21.1504 7.51471 20.2835C7.81834 19.4384 8.10027 18.5282 8.36052 17.5531C8.62077 16.5996 8.83765 15.6786 9.01115 14.7901C9.20633 13.9016 9.32561 13.2081 9.36899 12.7097C9.10874 12.8831 8.87018 13.0456 8.6533 13.1973L5.46524 16.0253C5.35681 16.112 5.25921 16.2095 5.17246 16.3179C5.1074 16.4479 5.00981 16.5671 4.87968 16.6754C4.35918 17.1955 3.8929 17.7156 3.48084 18.2357C3.06878 18.7558 2.65672 19.33 2.24465 19.9585C2.04947 20.2402 1.84344 20.5978 1.62656 21.0312C1.388 21.4646 1.20365 21.9197 1.07353 22.3964C0.943405 22.8948 0.90003 23.3824 0.943405 23.8592C0.965093 24.3359 1.13859 24.7477 1.4639 25.0944C1.74584 25.4411 2.17959 25.6145 2.76515 25.6145ZM3.51337 9.7192C3.92543 9.5025 4.4134 9.02575 4.97728 8.28895C5.56284 7.53049 6.1484 6.69617 6.73396 5.78601C7.31952 4.87585 7.86171 3.98737 8.36052 3.12055C8.88102 2.23206 9.28224 1.54944 9.56418 1.07269C9.82443 0.639283 9.99793 0.357567 10.0847 0.227544C10.1931 0.0758512 10.4208 4.69501e-06 10.7678 4.69501e-06C10.9413 4.69501e-06 11.0715 0.130028 11.1582 0.390073C11.245 0.650119 11.31 0.953505 11.3534 1.30023C11.3968 1.62529 11.4185 1.96118 11.4185 2.30791V3.05554V5.55847C11.4185 5.97021 11.3968 6.40362 11.3534 6.8587C11.3317 7.29211 11.2992 7.72552 11.2558 8.15893C11.2341 8.57067 11.2016 8.96073 11.1582 9.32913C11.1365 9.67586 11.1257 9.96841 11.1257 10.2068L15.7776 7.50881C15.821 7.46547 15.9078 7.40046 16.0379 7.31378C16.168 7.2271 16.309 7.14042 16.4608 7.05374C16.6126 6.96705 16.7644 6.89121 16.9162 6.8262C17.068 6.73951 17.209 6.69617 17.3391 6.69617C17.3982 6.69617 17.4483 6.70708 17.4895 6.72891C17.8111 5.98395 18.1643 5.33376 18.5491 4.77834C18.9395 4.19324 19.3299 3.90069 19.7203 3.90069C19.9371 3.90069 20.089 3.9982 20.1757 4.19324C20.2625 4.38827 20.2841 4.5508 20.2408 4.68082C20.1974 4.78917 20.1106 4.89753 19.9805 5.00588C19.8721 5.11423 19.7745 5.23342 19.6877 5.36344C19.7311 5.51513 19.8396 5.67766 20.0131 5.85103C20.1866 6.02439 20.3492 6.2736 20.501 6.59866C20.6745 6.92371 20.7938 7.34629 20.8589 7.86638C20.9239 8.3648 20.8697 9.03658 20.6962 9.88173C20.4576 11.0086 20.0781 11.8537 19.5576 12.4172C19.0371 12.9806 18.5275 13.2623 18.0286 13.2623C17.5949 13.2623 17.2262 13.0456 16.9226 12.6122C16.619 12.2005 16.4671 11.572 16.4671 10.7269C16.4671 10.3585 16.5539 9.79505 16.7274 9.03658C16.8482 8.5673 16.9897 8.09801 17.152 7.62873C16.9692 7.76649 16.7605 7.91071 16.5259 8.06141C16.2439 8.23477 15.9728 8.3973 15.7126 8.549C15.4523 8.67902 15.268 8.77654 15.1595 8.84155C14.4872 9.20994 13.8149 9.61085 13.1426 10.0443C12.492 10.456 11.8522 10.8786 11.2233 11.312C11.0498 11.4203 10.963 11.5178 10.963 11.6045C10.963 11.6695 10.9413 11.8212 10.898 12.0596C10.7895 12.8614 10.6377 13.7499 10.4425 14.7251C10.2473 15.7002 10.0196 16.6754 9.75936 17.6506C9.49911 18.6474 9.19549 19.5901 8.84849 20.4786C8.52318 21.3887 8.16533 22.1689 7.77496 22.819C7.5364 23.2741 7.24362 23.7183 6.89662 24.1517C6.54962 24.6068 6.15924 25.0077 5.72549 25.3544C5.31343 25.7228 4.85799 26.0154 4.35918 26.2321C3.88206 26.4488 3.3724 26.5571 2.83022 26.5571C2.02778 26.5571 1.35547 26.2863 0.81328 25.7445C0.271093 25.2027 0 24.4443 0 23.4691C0 22.5806 0.292781 21.5946 0.878343 20.5111C1.44222 19.4492 2.13622 18.409 2.96034 17.3905C3.80615 16.372 4.69534 15.4185 5.6279 14.53C6.56046 13.6632 7.38459 12.9806 8.10027 12.4822C8.20871 12.3738 8.3063 12.298 8.39305 12.2546C8.4798 12.2113 8.58824 12.1355 8.71837 12.0271C9.02199 11.7671 9.23886 11.5937 9.36899 11.507C9.5208 11.4203 9.60755 11.2253 9.62924 10.9219C9.73768 10.0984 9.82443 9.32913 9.88949 8.61401C9.97624 7.87721 10.0521 7.15125 10.1172 6.43613C10.1823 5.721 10.2256 4.98421 10.2473 4.22574C10.2907 3.44561 10.3124 2.58962 10.3124 1.65779C10.2473 1.70113 10.063 1.96118 9.75936 2.43793C9.45574 2.91468 9.11958 3.45644 8.7509 4.06321C8.4039 4.64832 8.06774 5.21175 7.74243 5.75351C7.41712 6.29527 7.1894 6.66367 7.05927 6.8587C6.73396 7.37879 6.33274 7.9964 5.85562 8.71152C5.40018 9.40498 4.95559 9.95757 4.52184 10.3693C4.10978 10.7377 3.73025 10.9219 3.38325 10.9219C3.01456 10.9219 2.71093 10.7594 2.47237 10.4343C2.2555 10.0876 2.14706 9.63252 2.14706 9.06909C2.14706 8.72236 2.19043 8.28895 2.27718 7.76886C2.38562 7.2271 2.51575 6.71784 2.66756 6.24109C2.84106 5.74267 3.03625 5.3201 3.25312 4.97337C3.49168 4.60497 3.74109 4.42078 4.00134 4.42078C4.37003 4.42078 4.54353 4.5508 4.52184 4.81084C4.52184 5.07089 4.44593 5.43929 4.29412 5.91604C4.14231 6.37112 3.96881 6.92371 3.77362 7.57383C3.60012 8.22394 3.51337 8.93906 3.51337 9.7192ZM18.0937 11.8321C18.419 11.7454 18.7118 11.4528 18.972 10.9544C19.2323 10.456 19.4166 9.9034 19.5251 9.29663C19.6335 8.68985 19.6552 8.11559 19.5901 7.57383C19.5468 7.03206 19.3841 6.66367 19.1022 6.46863C19.0371 6.70701 18.9178 7.05374 18.7443 7.50881C18.5708 7.94222 18.3973 8.41897 18.2238 8.93906C18.072 9.45916 17.9636 9.97925 17.8985 10.4993C17.8551 11.0194 17.9202 11.4637 18.0937 11.8321ZM25.0009 6.38196C25.4555 6.38196 25.824 6.01328 25.824 5.55848C25.824 5.10369 25.4555 4.73501 25.0009 4.73501C24.5463 4.73501 24.1778 5.10369 24.1778 5.55848C24.1778 6.01328 24.5463 6.38196 25.0009 6.38196Z" fill="#4B4B4B"/>
<path fill-rule="evenodd" clip-rule="evenodd" d="M29.5118 25.6145C29.9666 25.6145 30.389 25.5061 30.7789 25.2894C31.1904 25.0727 31.5586 24.791 31.8835 24.4443C32.2301 24.1192 32.5333 23.7616 32.7932 23.3716C33.0532 22.9815 33.2806 22.6131 33.4755 22.2664C33.7138 21.8113 33.9737 21.1504 34.2553 20.2835C34.5585 19.4384 34.8401 18.5282 35.1 17.5531C35.3599 16.5996 35.5765 15.6786 35.7498 14.7901C35.9447 13.9016 36.0639 13.2081 36.1072 12.7097C35.8473 12.8831 35.609 13.0456 35.3924 13.1973L32.2084 16.0253C32.1001 16.112 32.0027 16.2095 31.916 16.3178C31.851 16.4479 31.7536 16.5671 31.6236 16.6754C31.1038 17.1955 30.6381 17.7156 30.2266 18.2357C29.815 18.7558 29.4035 19.33 28.9919 19.9585C28.797 20.2402 28.5912 20.5978 28.3746 21.0312C28.1364 21.4646 27.9523 21.9197 27.8223 22.3964C27.6924 22.8948 27.649 23.3824 27.6924 23.8592C27.714 24.3359 27.8873 24.7476 28.2122 25.0944C28.4938 25.4411 28.927 25.6145 29.5118 25.6145ZM30.259 9.7192C30.6706 9.50249 31.1579 9.02574 31.7211 8.28895C32.3059 7.53048 32.8907 6.69617 33.4755 5.78601C34.0603 4.87585 34.6018 3.98736 35.1 3.12054C35.6199 2.23206 36.0206 1.54944 36.3021 1.07269C36.562 0.639279 36.7353 0.357563 36.822 0.22754C36.9303 0.0758465 37.1577 0 37.5043 0C37.6775 0 37.8075 0.130023 37.8941 0.390068C37.9808 0.650114 38.0457 0.9535 38.0891 1.30023C38.1324 1.62528 38.154 1.96118 38.154 2.3079V3.05553V5.55847C38.154 5.97021 38.1324 6.40362 38.0891 6.8587C38.0674 7.29211 38.0349 7.72551 37.9916 8.15892C37.9699 8.57066 37.9375 8.96073 37.8941 9.32913C37.8725 9.67585 37.8616 9.96841 37.8616 10.2068L42.5077 7.50881C42.551 7.46547 42.6376 7.40046 42.7676 7.31378C42.8975 7.22709 43.0383 7.14041 43.19 7.05373C43.3416 6.96705 43.4932 6.8912 43.6448 6.82619C43.721 6.78262 43.7945 6.75 43.8652 6.72833C44.0327 6.34951 44.2213 5.98123 44.4309 5.62348C44.8208 4.97337 45.2648 4.43161 45.763 3.9982C46.2828 3.54312 46.8243 3.31558 47.3875 3.31558C47.7774 3.31558 48.1131 3.4131 48.3947 3.60813C48.6762 3.80316 48.8928 4.01987 49.0445 4.25824C49.1961 4.47495 49.2611 4.68082 49.2394 4.87585C49.2394 5.07088 49.1311 5.1684 48.9145 5.1684C48.6762 5.1684 48.4488 5.04921 48.2322 4.81084C48.0156 4.55079 47.7557 4.42077 47.4525 4.42077C47.2142 4.42077 46.9218 4.56163 46.5752 4.84335C46.2503 5.12506 45.8496 5.67766 45.3731 6.50113C45.1565 6.84786 44.9507 7.30294 44.7558 7.86637C44.5825 8.40813 44.4959 8.94989 44.4959 9.49166L44.5284 9.45915C44.5284 9.48082 44.5717 9.43748 44.6583 9.32913L44.9183 8.93906C45.0915 8.67901 45.2865 8.34312 45.5031 7.93138C45.7413 7.49797 45.9688 7.08624 46.1854 6.69617C46.4236 6.28443 46.6402 5.92687 46.8352 5.62348C47.0518 5.32009 47.2142 5.1684 47.3225 5.1684C47.6041 5.1684 47.7882 5.25508 47.8748 5.42845C47.9831 5.58014 48.0481 5.78601 48.0698 6.04606C48.0914 6.3061 48.1022 6.59865 48.1022 6.92371C48.1022 7.24876 48.1347 7.56299 48.1997 7.86637C48.3297 8.45147 48.5246 8.88488 48.7845 9.1666C49.0661 9.42664 49.3802 9.55667 49.7267 9.55667C50.3332 9.55667 51.0047 9.18827 51.7411 8.45147C52.0443 8.16976 52.2501 7.94222 52.3584 7.76886C52.4884 7.57382 52.6725 7.35712 52.9107 7.11874C53.0623 6.90204 53.2573 6.79369 53.4955 6.79369C53.6255 6.79369 53.723 6.84786 53.7879 6.95621C53.8529 7.0429 53.8638 7.19459 53.8204 7.41129C53.7771 7.60633 53.6472 7.85554 53.4306 8.15892C53.2356 8.46231 52.9324 8.80904 52.5209 9.1991L51.5462 9.97924C50.918 10.4127 50.3116 10.6294 49.7267 10.6294C49.3152 10.6294 48.947 10.5318 48.6221 10.3368C48.2972 10.1418 48.0156 9.90339 47.7774 9.62168C47.5608 9.31829 47.3875 8.9824 47.2575 8.614C47.1276 8.2456 47.0626 7.88804 47.0626 7.54132C46.911 7.64967 46.7377 7.89888 46.5427 8.28895C46.3478 8.65734 46.1312 9.04741 45.8929 9.45915C45.6763 9.84922 45.4489 10.2068 45.2107 10.5318C44.9724 10.8569 44.7341 11.0194 44.4959 11.0194C43.8894 11.0194 43.5212 10.8786 43.3912 10.5968C43.2613 10.3151 43.1963 9.88172 43.1963 9.29662C43.1963 8.92298 43.2693 8.4763 43.4153 7.95658C43.3633 7.99117 43.3098 8.02611 43.2549 8.06141C42.9734 8.23477 42.7026 8.3973 42.4427 8.54899C42.1828 8.67901 41.9987 8.77653 41.8904 8.84154C41.2189 9.20994 40.5475 9.61084 39.876 10.0443C39.2262 10.456 38.5872 10.8786 37.9591 11.312C37.7858 11.4203 37.6992 11.5178 37.6992 11.6045C37.6992 11.6695 37.6775 11.8212 37.6342 12.0596C37.5259 12.8614 37.3743 13.7499 37.1794 14.7251C36.9844 15.7002 36.757 16.6754 36.4971 17.6506C36.2372 18.6474 35.9339 19.5901 35.5874 20.4786C35.2625 21.3887 34.9051 22.1689 34.5152 22.819C34.2769 23.2741 33.9845 23.7183 33.638 24.1517C33.2914 24.6068 32.9015 25.0077 32.4683 25.3544C32.0568 25.7228 31.602 26.0154 31.1038 26.2321C30.6273 26.4488 30.1183 26.5571 29.5768 26.5571C28.7753 26.5571 28.1039 26.2862 27.5624 25.7445C27.0209 25.2027 26.7502 24.4443 26.7502 23.4691C26.7502 22.5806 27.0426 21.5946 27.6274 20.5111C28.1905 19.4492 28.8836 18.409 29.7067 17.3905C30.5515 16.372 31.4395 15.4185 32.3709 14.53C33.3022 13.6632 34.1253 12.9806 34.8401 12.4822C34.9484 12.3738 35.0459 12.298 35.1325 12.2546C35.2191 12.2113 35.3274 12.1355 35.4574 12.0271C35.7606 11.7671 35.9772 11.5937 36.1072 11.507C36.2588 11.4203 36.3455 11.2253 36.3671 10.9219C36.4754 10.0984 36.562 9.32913 36.627 8.614C36.7137 7.87721 36.7895 7.15125 36.8545 6.43612C36.9194 5.721 36.9628 4.9842 36.9844 4.22574C37.0277 3.4456 37.0494 2.58962 37.0494 1.65779C36.9844 1.70113 36.8003 1.96118 36.4971 2.43793C36.1938 2.91468 35.8581 3.45644 35.4899 4.06321C35.1433 4.64831 34.8076 5.21174 34.4827 5.7535C34.1578 6.29527 33.9304 6.66366 33.8004 6.8587C33.4755 7.37879 33.0748 7.9964 32.5983 8.71152C32.1434 9.40497 31.6994 9.95757 31.2662 10.3693C30.8547 10.7377 30.4756 10.9219 30.1291 10.9219C29.7609 10.9219 29.4576 10.7594 29.2194 10.4343C29.0028 10.0876 28.8945 9.63251 28.8945 9.06908C28.8945 8.72235 28.9378 8.28895 29.0244 7.76886C29.1327 7.22709 29.2627 6.71784 29.4143 6.24109C29.5876 5.74267 29.7825 5.32009 29.9991 4.97337C30.2374 4.60497 30.4865 4.42077 30.7464 4.42077C31.1146 4.42077 31.2879 4.55079 31.2662 4.81084C31.2662 5.07088 31.1904 5.43928 31.0388 5.91603C30.8872 6.37111 30.7139 6.92371 30.519 7.57382C30.3457 8.22394 30.259 8.93906 30.259 9.7192ZM2.76515 25.6145C3.22059 25.6145 3.6435 25.5061 4.03387 25.2894C4.44593 25.0727 4.81462 24.791 5.13993 24.4443C5.48693 24.1192 5.79056 23.7616 6.05081 23.3716C6.31106 22.9815 6.53877 22.6131 6.73396 22.2664C6.97252 21.8113 7.23277 21.1504 7.51471 20.2835C7.81834 19.4384 8.10027 18.5282 8.36052 17.5531C8.62077 16.5996 8.83765 15.6786 9.01115 14.7901C9.20633 13.9016 9.32561 13.2081 9.36899 12.7097C9.10874 12.8831 8.87018 13.0456 8.6533 13.1973L5.46524 16.0253C5.35681 16.112 5.25921 16.2095 5.17246 16.3179C5.1074 16.4479 5.00981 16.5671 4.87968 16.6754C4.35918 17.1955 3.8929 17.7156 3.48084 18.2357C3.06878 18.7558 2.65672 19.33 2.24465 19.9585C2.04947 20.2402 1.84344 20.5978 1.62656 21.0312C1.388 21.4646 1.20365 21.9197 1.07353 22.3964C0.943405 22.8948 0.90003 23.3824 0.943405 23.8592C0.965093 24.3359 1.13859 24.7477 1.4639 25.0944C1.74584 25.4411 2.17959 25.6145 2.76515 25.6145ZM3.51337 9.7192C3.92543 9.5025 4.4134 9.02575 4.97728 8.28895C5.56284 7.53049 6.1484 6.69617 6.73396 5.78601C7.31952 4.87585 7.86171 3.98737 8.36052 3.12055C8.88102 2.23206 9.28224 1.54944 9.56418 1.07269C9.82443 0.639283 9.99793 0.357567 10.0847 0.227544C10.1931 0.0758512 10.4208 4.69501e-06 10.7678 4.69501e-06C10.9413 4.69501e-06 11.0715 0.130028 11.1582 0.390073C11.245 0.650119 11.31 0.953505 11.3534 1.30023C11.3968 1.62529 11.4185 1.96118 11.4185 2.30791V3.05554V5.55847C11.4185 5.97021 11.3968 6.40362 11.3534 6.8587C11.3317 7.29211 11.2992 7.72552 11.2558 8.15893C11.2341 8.57067 11.2016 8.96073 11.1582 9.32913C11.1365 9.67586 11.1257 9.96841 11.1257 10.2068L15.7776 7.50881C15.821 7.46547 15.9078 7.40046 16.0379 7.31378C16.168 7.2271 16.309 7.14042 16.4608 7.05374C16.6126 6.96705 16.7644 6.89121 16.9162 6.8262C17.068 6.73951 17.209 6.69617 17.3391 6.69617C17.3982 6.69617 17.4483 6.70708 17.4895 6.72891C17.8111 5.98395 18.1643 5.33376 18.5491 4.77834C18.9395 4.19324 19.3299 3.90069 19.7203 3.90069C19.9371 3.90069 20.089 3.9982 20.1757 4.19324C20.2625 4.38827 20.2841 4.5508 20.2408 4.68082C20.1974 4.78917 20.1106 4.89753 19.9805 5.00588C19.8721 5.11423 19.7745 5.23342 19.6877 5.36344C19.7311 5.51513 19.8396 5.67766 20.0131 5.85103C20.1866 6.02439 20.3492 6.2736 20.501 6.59866C20.6745 6.92371 20.7938 7.34629 20.8589 7.86638C20.9239 8.3648 20.8697 9.03658 20.6962 9.88173C20.4576 11.0086 20.0781 11.8537 19.5576 12.4172C19.0371 12.9806 18.5275 13.2623 18.0286 13.2623C17.5949 13.2623 17.2262 13.0456 16.9226 12.6122C16.619 12.2005 16.4671 11.572 16.4671 10.7269C16.4671 10.3585 16.5539 9.79505 16.7274 9.03658C16.8482 8.5673 16.9897 8.09801 17.152 7.62873C16.9692 7.76649 16.7605 7.91071 16.5259 8.06141C16.2439 8.23477 15.9728 8.3973 15.7126 8.549C15.4523 8.67902 15.268 8.77654 15.1595 8.84155C14.4872 9.20994 13.8149 9.61085 13.1426 10.0443C12.492 10.456 11.8522 10.8786 11.2233 11.312C11.0498 11.4203 10.963 11.5178 10.963 11.6045C10.963 11.6695 10.9413 11.8212 10.898 12.0596C10.7895 12.8614 10.6377 13.7499 10.4425 14.7251C10.2473 15.7002 10.0196 16.6754 9.75936 17.6506C9.49911 18.6474 9.19549 19.5901 8.84849 20.4786C8.52318 21.3887 8.16533 22.1689 7.77496 22.819C7.5364 23.2741 7.24362 23.7183 6.89662 24.1517C6.54962 24.6068 6.15924 25.0077 5.72549 25.3544C5.31343 25.7228 4.85799 26.0154 4.35918 26.2321C3.88206 26.4488 3.3724 26.5571 2.83022 26.5571C2.02778 26.5571 1.35547 26.2863 0.81328 25.7445C0.271093 25.2027 0 24.4443 0 23.4691C0 22.5806 0.292781 21.5946 0.878343 20.5111C1.44222 19.4492 2.13622 18.409 2.96034 17.3905C3.80615 16.372 4.69534 15.4185 5.6279 14.53C6.56046 13.6632 7.38459 12.9806 8.10027 12.4822C8.20871 12.3738 8.3063 12.298 8.39305 12.2546C8.4798 12.2113 8.58824 12.1355 8.71837 12.0271C9.02199 11.7671 9.23886 11.5937 9.36899 11.507C9.5208 11.4203 9.60755 11.2253 9.62924 10.9219C9.73768 10.0984 9.82443 9.32913 9.88949 8.61401C9.97624 7.87721 10.0521 7.15125 10.1172 6.43613C10.1823 5.721 10.2256 4.98421 10.2473 4.22574C10.2907 3.44561 10.3124 2.58962 10.3124 1.65779C10.2473 1.70113 10.063 1.96118 9.75936 2.43793C9.45574 2.91468 9.11958 3.45644 8.7509 4.06321C8.4039 4.64832 8.06774 5.21175 7.74243 5.75351C7.41712 6.29527 7.1894 6.66367 7.05927 6.8587C6.73396 7.37879 6.33274 7.9964 5.85562 8.71152C5.40018 9.40498 4.95559 9.95757 4.52184 10.3693C4.10978 10.7377 3.73025 10.9219 3.38325 10.9219C3.01456 10.9219 2.71093 10.7594 2.47237 10.4343C2.2555 10.0876 2.14706 9.63252 2.14706 9.06909C2.14706 8.72236 2.19043 8.28895 2.27718 7.76886C2.38562 7.2271 2.51575 6.71784 2.66756 6.24109C2.84106 5.74267 3.03625 5.3201 3.25312 4.97337C3.49168 4.60497 3.74109 4.42078 4.00134 4.42078C4.37003 4.42078 4.54353 4.5508 4.52184 4.81084C4.52184 5.07089 4.44593 5.43929 4.29412 5.91604C4.14231 6.37112 3.96881 6.92371 3.77362 7.57383C3.60012 8.22394 3.51337 8.93906 3.51337 9.7192ZM18.0937 11.8321C18.419 11.7454 18.7118 11.4528 18.972 10.9544C19.2323 10.456 19.4166 9.9034 19.5251 9.29663C19.6335 8.68985 19.6552 8.11559 19.5901 7.57383C19.5468 7.03206 19.3841 6.66367 19.1022 6.46863C19.0371 6.70701 18.9178 7.05374 18.7443 7.50881C18.5708 7.94222 18.3973 8.41897 18.2238 8.93906C18.072 9.45916 17.9636 9.97925 17.8985 10.4993C17.8551 11.0194 17.9202 11.4637 18.0937 11.8321ZM25.0009 6.38196C25.4555 6.38196 25.824 6.01328 25.824 5.55848C25.824 5.10369 25.4555 4.73501 25.0009 4.73501C24.5463 4.73501 24.1778 5.10369 24.1778 5.55848C24.1778 6.01328 24.5463 6.38196 25.0009 6.38196Z" fill="#4B4B4B"/>
</svg>
